<svg xmlns="http://www.w3.org/2000/svg" xmlns:xlink="http://www.w3.org/1999/xlink" contentStyleType="text/css" data-diagram-type="SEQUENCE" height="805px" preserveAspectRatio="none" style="width:979px;height:805px;background:#FFFFFF;" version="1.1" viewBox="0 0 979 805" width="979px" zoomAndPan="magnify"><defs/><g><g><title>UI</title><rect fill="#FFFFFF" height="682.9243" style="stroke:#000000;stroke-width:1;" width="10" x="258.3096" y="68.814"/></g><g><title>Engine</title><rect fill="#FFFFFF" height="580.5264" style="stroke:#000000;stroke-width:1;" width="10" x="503.9595" y="98.6133"/></g><g><title>Rules</title><rect fill="#FFFFFF" height="29.7993" style="stroke:#000000;stroke-width:1;" width="10" x="711.3774" y="128.4126"/></g><g><title>LicDB</title><rect fill="#FFFFFF" height="29.7993" style="stroke:#000000;stroke-width:1;" width="10" x="921.6147" y="391.8071"/></g><rect fill="#FFFFFF" height="164.9966" style="stroke:#000000;stroke-width:1;" width="451.7363" x="448.2217" y="173.2119"/><rect fill="#FFFFFF" height="90.3979" style="stroke:#000000;stroke-width:1;" width="431.7363" x="458.2217" y="240.8105"/><rect fill="#FFFFFF" height="298.1318" style="stroke:#000000;stroke-width:1;" width="525.0498" x="448.2217" y="352.2085"/><rect fill="#FFFFFF" height="176.9346" style="stroke:#000000;stroke-width:1;" width="258.1558" x="458.2217" y="466.4058"/><rect fill="#FFFFFF" height="58.168" style="stroke:none;stroke-width:1;" width="258.1558" x="458.2217" y="527.0044"/><rect fill="#FFFFFF" height="58.168" style="stroke:none;stroke-width:1;" width="258.1558" x="458.2217" y="585.1724"/><g><title>User</title><rect fill="#000000" fill-opacity="0.00000" height="732.7236" width="8" x="38.9277" y="37.0146"/><line style="stroke:#455A64;stroke-width:1;stroke-dasharray:5,5;" x1="42" x2="42" y1="37.0146" y2="769.7383"/></g><g><title>UI</title><rect fill="#000000" fill-opacity="0.00000" height="732.7236" width="8" x="259.3096" y="37.0146"/><line style="stroke:#455A64;stroke-width:1;stroke-dasharray:5,5;" x1="263.2397" x2="263.2397" y1="37.0146" y2="769.7383"/></g><g><title>Engine</title><rect fill="#000000" fill-opacity="0.00000" height="732.7236" width="8" x="504.9595" y="37.0146"/><line style="stroke:#455A64;stroke-width:1;stroke-dasharray:5,5;" x1="508.2217" x2="508.2217" y1="37.0146" y2="769.7383"/></g><g><title>Rules</title><rect fill="#000000" fill-opacity="0.00000" height="732.7236" width="8" x="712.3774" y="37.0146"/><line style="stroke:#455A64;stroke-width:1;stroke-dasharray:5,5;" x1="716.3428" x2="716.3428" y1="37.0146" y2="769.7383"/></g><g><title>WM</title><rect fill="#000000" fill-opacity="0.00000" height="732.7236" width="8" x="846.1372" y="37.0146"/><line style="stroke:#455A64;stroke-width:1;stroke-dasharray:5,5;" x1="849.3164" x2="849.3164" y1="37.0146" y2="769.7383"/></g><g><title>LicDB</title><rect fill="#000000" fill-opacity="0.00000" height="732.7236" width="8" x="922.6147" y="37.0146"/><line style="stroke:#455A64;stroke-width:1;stroke-dasharray:5,5;" x1="925.958" x2="925.958" y1="37.0146" y2="769.7383"/></g><g class="participant participant-head" data-participant="User"><rect fill="#FFFFFF" height="31.0146" rx="2.5" ry="2.5" style="stroke:#000000;stroke-width:1;" width="45.8555" x="20" y="5"/><text fill="#000000" font-family="Verdana" font-size="14" lengthAdjust="spacing" textLength="31.8555" x="27" y="26.0752">User</text></g><g class="participant participant-tail" data-participant="User"><rect fill="#FFFFFF" height="31.0146" rx="2.5" ry="2.5" style="stroke:#000000;stroke-width:1;" width="45.8555" x="20" y="768.7383"/><text fill="#000000" font-family="Verdana" font-size="14" lengthAdjust="spacing" textLength="31.8555" x="27" y="789.8135">User</text></g><g class="participant participant-head" data-participant="UI"><rect fill="#FFFFFF" height="31.0146" rx="2.5" ry="2.5" style="stroke:#000000;stroke-width:1;" width="30.1396" x="248.2397" y="5"/><text fill="#000000" font-family="Verdana" font-size="14" lengthAdjust="spacing" textLength="16.1396" x="255.2397" y="26.0752">UI</text></g><g class="participant participant-tail" data-participant="UI"><rect fill="#FFFFFF" height="31.0146" rx="2.5" ry="2.5" style="stroke:#000000;stroke-width:1;" width="30.1396" x="248.2397" y="768.7383"/><text fill="#000000" font-family="Verdana" font-size="14" lengthAdjust="spacing" textLength="16.1396" x="255.2397" y="789.8135">UI</text></g><g class="participant participant-head" data-participant="Engine"><rect fill="#FFFFFF" height="31.0146" rx="2.5" ry="2.5" style="stroke:#000000;stroke-width:1;" width="61.4756" x="478.2217" y="5"/><text fill="#000000" font-family="Verdana" font-size="14" lengthAdjust="spacing" textLength="47.4756" x="485.2217" y="26.0752">Engine</text></g><g class="participant participant-tail" data-participant="Engine"><rect fill="#FFFFFF" height="31.0146" rx="2.5" ry="2.5" style="stroke:#000000;stroke-width:1;" width="61.4756" x="478.2217" y="768.7383"/><text fill="#000000" font-family="Verdana" font-size="14" lengthAdjust="spacing" textLength="47.4756" x="485.2217" y="789.8135">Engine</text></g><g class="participant participant-head" data-participant="Rules"><rect fill="#FFFFFF" height="31.0146" rx="2.5" ry="2.5" style="stroke:#000000;stroke-width:1;" width="52.0693" x="690.3428" y="5"/><text fill="#000000" font-family="Verdana" font-size="14" lengthAdjust="spacing" textLength="38.0693" x="697.3428" y="26.0752">Rules</text></g><g class="participant participant-tail" data-participant="Rules"><rect fill="#FFFFFF" height="31.0146" rx="2.5" ry="2.5" style="stroke:#000000;stroke-width:1;" width="52.0693" x="690.3428" y="768.7383"/><text fill="#000000" font-family="Verdana" font-size="14" lengthAdjust="spacing" textLength="38.0693" x="697.3428" y="789.8135">Rules</text></g><g class="participant participant-head" data-participant="WM"><rect fill="#FFFFFF" height="31.0146" rx="2.5" ry="2.5" style="stroke:#000000;stroke-width:1;" width="39.6416" x="830.3164" y="5"/><text fill="#000000" font-family="Verdana" font-size="14" lengthAdjust="spacing" textLength="25.6416" x="837.3164" y="26.0752">WM</text></g><g class="participant participant-tail" data-participant="WM"><rect fill="#FFFFFF" height="31.0146" rx="2.5" ry="2.5" style="stroke:#000000;stroke-width:1;" width="39.6416" x="830.3164" y="768.7383"/><text fill="#000000" font-family="Verdana" font-size="14" lengthAdjust="spacing" textLength="25.6416" x="837.3164" y="789.8135">WM</text></g><g class="participant participant-head" data-participant="LicDB"><rect fill="#FFFFFF" height="31.0146" rx="2.5" ry="2.5" style="stroke:#000000;stroke-width:1;" width="53.3135" x="899.958" y="5"/><text fill="#000000" font-family="Verdana" font-size="14" lengthAdjust="spacing" textLength="39.3135" x="906.958" y="26.0752">LicDB</text></g><g class="participant participant-tail" data-participant="LicDB"><rect fill="#FFFFFF" height="31.0146" rx="2.5" ry="2.5" style="stroke:#000000;stroke-width:1;" width="53.3135" x="899.958" y="768.7383"/><text fill="#000000" font-family="Verdana" font-size="14" lengthAdjust="spacing" textLength="39.3135" x="906.958" y="789.8135">LicDB</text></g><g><title>UI</title><rect fill="#FFFFFF" height="682.9243" style="stroke:#000000;stroke-width:1;" width="10" x="258.3096" y="68.814"/></g><g><title>Engine</title><rect fill="#FFFFFF" height="580.5264" style="stroke:#000000;stroke-width:1;" width="10" x="503.9595" y="98.6133"/></g><g><title>Rules</title><rect fill="#FFFFFF" height="29.7993" style="stroke:#000000;stroke-width:1;" width="10" x="711.3774" y="128.4126"/></g><g><title>LicDB</title><rect fill="#FFFFFF" height="29.7993" style="stroke:#000000;stroke-width:1;" width="10" x="921.6147" y="391.8071"/></g><g class="message" data-participant-1="User" data-participant-2="UI"><polygon fill="#37474F" points="246.3096,64.814,256.3096,68.814,246.3096,72.814,250.3096,68.814" style="stroke:#37474F;stroke-width:1;"/><line style="stroke:#37474F;stroke-width:1;" x1="42.9277" x2="252.3096" y1="68.814" y2="68.814"/><text fill="#000000" font-family="Verdana" font-size="13" lengthAdjust="spacing" textLength="106.4629" x="49.9277" y="64.0845">Provide answers</text></g><g class="message" data-participant-1="UI" data-participant-2="Engine"><polygon fill="#37474F" points="491.9595,94.6133,501.9595,98.6133,491.9595,102.6133,495.9595,98.6133" style="stroke:#37474F;stroke-width:1;"/><line style="stroke:#37474F;stroke-width:1;" x1="268.3096" x2="497.9595" y1="98.6133" y2="98.6133"/><text fill="#000000" font-family="Verdana" font-size="13" lengthAdjust="spacing" textLength="157.9487" x="275.3096" y="93.8838">Run inference with facts</text></g><g class="message" data-participant-1="Engine" data-participant-2="Rules"><polygon fill="#37474F" points="699.3774,124.4126,709.3774,128.4126,699.3774,132.4126,703.3774,128.4126" style="stroke:#37474F;stroke-width:1;"/><line style="stroke:#37474F;stroke-width:1;" x1="513.9595" x2="705.3774" y1="128.4126" y2="128.4126"/><text fill="#000000" font-family="Verdana" font-size="13" lengthAdjust="spacing" textLength="78.8887" x="520.9595" y="123.6831">Get all rules</text></g><g class="message" data-participant-1="Rules" data-participant-2="Engine"><polygon fill="#37474F" points="524.9595,154.2119,514.9595,158.2119,524.9595,162.2119,520.9595,158.2119" style="stroke:#37474F;stroke-width:1;"/><line style="stroke:#37474F;stroke-width:1;stroke-dasharray:2,2;" x1="518.9595" x2="715.3774" y1="158.2119" y2="158.2119"/><text fill="#000000" font-family="Verdana" font-size="13" lengthAdjust="spacing" textLength="97.1636" x="530.9595" y="153.4824">Return rule list</text></g><path d="M448.2217,173.2119 L524.6045,173.2119 L524.6045,181.0112 L514.6045,191.0112 L448.2217,191.0112 L448.2217,173.2119" fill="#FFFFFF" style="stroke:#000000;stroke-width:1;"/><rect fill="none" height="164.9966" style="stroke:#000000;stroke-width:1;" width="451.7363" x="448.2217" y="173.2119"/><text fill="#000000" font-family="Verdana" font-size="13" font-weight="bold" lengthAdjust="spacing" textLength="31.3828" x="463.2217" y="187.2817">loop</text><text fill="#000000" font-family="Verdana" font-size="11" font-weight="bold" lengthAdjust="spacing" textLength="69.2549" x="539.6045" y="186.271">[Each rule]</text><g class="message" data-participant-1="Engine" data-participant-2="Engine"><line style="stroke:#37474F;stroke-width:1;" x1="513.9595" x2="555.9595" y1="212.8105" y2="212.8105"/><line style="stroke:#37474F;stroke-width:1;" x1="555.9595" x2="555.9595" y1="212.8105" y2="225.8105"/><line style="stroke:#37474F;stroke-width:1;" x1="514.9595" x2="555.9595" y1="225.8105" y2="225.8105"/><polygon fill="#37474F" points="524.9595,221.8105,514.9595,225.8105,524.9595,229.8105,520.9595,225.8105" style="stroke:#37474F;stroke-width:1;"/><text fill="#000000" font-family="Verdana" font-size="13" lengthAdjust="spacing" textLength="162.9761" x="520.9595" y="208.0811">Evaluate condition(facts)</text></g><path d="M458.2217,240.8105 L522.271,240.8105 L522.271,248.6099 L512.271,258.6099 L458.2217,258.6099 L458.2217,240.8105" fill="#FFFFFF" style="stroke:#000000;stroke-width:1;"/><rect fill="none" height="90.3979" style="stroke:#000000;stroke-width:1;" width="431.7363" x="458.2217" y="240.8105"/><text fill="#000000" font-family="Verdana" font-size="13" font-weight="bold" lengthAdjust="spacing" textLength="19.0493" x="473.2217" y="254.8804">alt</text><text fill="#000000" font-family="Verdana" font-size="11" font-weight="bold" lengthAdjust="spacing" textLength="100.2944" x="537.271" y="253.8696">[Condition true]</text><g class="message" data-participant-1="Engine" data-participant-2="WM"><polygon fill="#37474F" points="838.1372,276.4092,848.1372,280.4092,838.1372,284.4092,842.1372,280.4092" style="stroke:#37474F;stroke-width:1;"/><line style="stroke:#37474F;stroke-width:1;" x1="513.9595" x2="844.1372" y1="280.4092" y2="280.4092"/><text fill="#000000" font-family="Verdana" font-size="13" lengthAdjust="spacing" textLength="229.1567" x="520.9595" y="275.6797">Execute action (add/remove/warn)</text></g><g class="message" data-participant-1="Engine" data-participant-2="Engine"><line style="stroke:#37474F;stroke-width:1;" x1="513.9595" x2="555.9595" y1="310.2085" y2="310.2085"/><line style="stroke:#37474F;stroke-width:1;" x1="555.9595" x2="555.9595" y1="310.2085" y2="323.2085"/><line style="stroke:#37474F;stroke-width:1;" x1="514.9595" x2="555.9595" y1="323.2085" y2="323.2085"/><polygon fill="#37474F" points="524.9595,319.2085,514.9595,323.2085,524.9595,327.2085,520.9595,323.2085" style="stroke:#37474F;stroke-width:1;"/><text fill="#000000" font-family="Verdana" font-size="13" lengthAdjust="spacing" textLength="131.333" x="520.9595" y="305.479">Record step in trace</text></g><path d="M448.2217,352.2085 L512.271,352.2085 L512.271,360.0078 L502.271,370.0078 L448.2217,370.0078 L448.2217,352.2085" fill="#FFFFFF" style="stroke:#000000;stroke-width:1;"/><rect fill="none" height="298.1318" style="stroke:#000000;stroke-width:1;" width="525.0498" x="448.2217" y="352.2085"/><text fill="#000000" font-family="Verdana" font-size="13" font-weight="bold" lengthAdjust="spacing" textLength="19.0493" x="463.2217" y="366.2783">alt</text><text fill="#000000" font-family="Verdana" font-size="11" font-weight="bold" lengthAdjust="spacing" textLength="113.4429" x="527.271" y="365.2676">[Mode = Analysis]</text><g class="message" data-participant-1="Engine" data-participant-2="LicDB"><polygon fill="#37474F" points="909.6147,387.8071,919.6147,391.8071,909.6147,395.8071,913.6147,391.8071" style="stroke:#37474F;stroke-width:1;"/><line style="stroke:#37474F;stroke-width:1;" x1="513.9595" x2="915.6147" y1="391.8071" y2="391.8071"/><text fill="#000000" font-family="Verdana" font-size="13" lengthAdjust="spacing" textLength="155.1367" x="520.9595" y="387.0776">Query license metadata</text></g><g class="message" data-participant-1="LicDB" data-participant-2="Engine"><polygon fill="#37474F" points="524.9595,417.6064,514.9595,421.6064,524.9595,425.6064,520.9595,421.6064" style="stroke:#37474F;stroke-width:1;"/><line style="stroke:#37474F;stroke-width:1;stroke-dasharray:2,2;" x1="518.9595" x2="925.6147" y1="421.6064" y2="421.6064"/><text fill="#000000" font-family="Verdana" font-size="13" lengthAdjust="spacing" textLength="121.6973" x="530.9595" y="416.877">Return license info</text></g><g class="message" data-participant-1="Engine" data-participant-2="WM"><polygon fill="#37474F" points="838.1372,447.4058,848.1372,451.4058,838.1372,455.4058,842.1372,451.4058" style="stroke:#37474F;stroke-width:1;"/><line style="stroke:#37474F;stroke-width:1;" x1="513.9595" x2="844.1372" y1="451.4058" y2="451.4058"/><text fill="#000000" font-family="Verdana" font-size="13" lengthAdjust="spacing" textLength="312.1777" x="520.9595" y="446.6763">Check license against eliminated/recommended</text></g><path d="M458.2217,466.4058 L522.271,466.4058 L522.271,474.2051 L512.271,484.2051 L458.2217,484.2051 L458.2217,466.4058" fill="#FFFFFF" style="stroke:#000000;stroke-width:1;"/><rect fill="none" height="176.9346" style="stroke:#000000;stroke-width:1;" width="258.1558" x="458.2217" y="466.4058"/><text fill="#000000" font-family="Verdana" font-size="13" font-weight="bold" lengthAdjust="spacing" textLength="19.0493" x="473.2217" y="480.4756">alt</text><text fill="#000000" font-family="Verdana" font-size="11" font-weight="bold" lengthAdjust="spacing" textLength="127.3433" x="537.271" y="479.4648">[License eliminated]</text><g class="message" data-participant-1="Engine" data-participant-2="Engine"><line style="stroke:#37474F;stroke-width:1;" x1="513.9595" x2="555.9595" y1="506.0044" y2="506.0044"/><line style="stroke:#37474F;stroke-width:1;" x1="555.9595" x2="555.9595" y1="506.0044" y2="519.0044"/><line style="stroke:#37474F;stroke-width:1;" x1="514.9595" x2="555.9595" y1="519.0044" y2="519.0044"/><polygon fill="#37474F" points="524.9595,515.0044,514.9595,519.0044,524.9595,523.0044,520.9595,519.0044" style="stroke:#37474F;stroke-width:1;"/><text fill="#000000" font-family="Verdana" font-size="13" lengthAdjust="spacing" textLength="110.4175" x="520.9595" y="501.2749">Collect violations</text></g><line style="stroke:#000000;stroke-width:1;stroke-dasharray:2,2;" x1="458.2217" x2="716.3774" y1="528.0044" y2="528.0044"/><text fill="#000000" font-family="Verdana" font-size="11" font-weight="bold" lengthAdjust="spacing" textLength="149.832" x="463.2217" y="539.0635">[License recommended]</text><g class="message" data-participant-1="Engine" data-participant-2="Engine"><line style="stroke:#37474F;stroke-width:1;" x1="513.9595" x2="555.9595" y1="564.1724" y2="564.1724"/><line style="stroke:#37474F;stroke-width:1;" x1="555.9595" x2="555.9595" y1="564.1724" y2="577.1724"/><line style="stroke:#37474F;stroke-width:1;" x1="514.9595" x2="555.9595" y1="577.1724" y2="577.1724"/><polygon fill="#37474F" points="524.9595,573.1724,514.9595,577.1724,524.9595,581.1724,520.9595,577.1724" style="stroke:#37474F;stroke-width:1;"/><text fill="#000000" font-family="Verdana" font-size="13" lengthAdjust="spacing" textLength="107.8911" x="520.9595" y="559.4429">Mark compatible</text></g><line style="stroke:#000000;stroke-width:1;stroke-dasharray:2,2;" x1="458.2217" x2="716.3774" y1="586.1724" y2="586.1724"/><text fill="#000000" font-family="Verdana" font-size="11" font-weight="bold" lengthAdjust="spacing" textLength="98.1836" x="463.2217" y="597.2314">[No conclusion]</text><g class="message" data-participant-1="Engine" data-participant-2="Engine"><line style="stroke:#37474F;stroke-width:1;" x1="513.9595" x2="555.9595" y1="622.3403" y2="622.3403"/><line style="stroke:#37474F;stroke-width:1;" x1="555.9595" x2="555.9595" y1="622.3403" y2="635.3403"/><line style="stroke:#37474F;stroke-width:1;" x1="514.9595" x2="555.9595" y1="635.3403" y2="635.3403"/><polygon fill="#37474F" points="524.9595,631.3403,514.9595,635.3403,524.9595,639.3403,520.9595,635.3403" style="stroke:#37474F;stroke-width:1;"/><text fill="#000000" font-family="Verdana" font-size="13" lengthAdjust="spacing" textLength="173.418" x="520.9595" y="617.6108">Direct metadata validation</text></g><g class="message" data-participant-1="Engine" data-participant-2="UI"><polygon fill="#37474F" points="279.3096,675.1396,269.3096,679.1396,279.3096,683.1396,275.3096,679.1396" style="stroke:#37474F;stroke-width:1;"/><line style="stroke:#37474F;stroke-width:1;stroke-dasharray:2,2;" x1="273.3096" x2="507.9595" y1="679.1396" y2="679.1396"/><text fill="#000000" font-family="Verdana" font-size="13" lengthAdjust="spacing" textLength="211.6499" x="285.3096" y="674.4102">Return working memory + trace</text></g><g class="message" data-participant-1="UI" data-participant-2="UI"><line style="stroke:#37474F;stroke-width:1;" x1="268.3096" x2="310.3096" y1="708.939" y2="708.939"/><line style="stroke:#37474F;stroke-width:1;" x1="310.3096" x2="310.3096" y1="708.939" y2="721.939"/><line style="stroke:#37474F;stroke-width:1;" x1="269.3096" x2="310.3096" y1="721.939" y2="721.939"/><polygon fill="#37474F" points="279.3096,717.939,269.3096,721.939,279.3096,725.939,275.3096,721.939" style="stroke:#37474F;stroke-width:1;"/><text fill="#000000" font-family="Verdana" font-size="13" lengthAdjust="spacing" textLength="177.3281" x="275.3096" y="704.2095">Generate report from trace</text></g><g class="message" data-participant-1="UI" data-participant-2="User"><polygon fill="#37474F" points="53.9277,747.7383,43.9277,751.7383,53.9277,755.7383,49.9277,751.7383" style="stroke:#37474F;stroke-width:1;"/><line style="stroke:#37474F;stroke-width:1;stroke-dasharray:2,2;" x1="47.9277" x2="262.3096" y1="751.7383" y2="751.7383"/><text fill="#000000" font-family="Verdana" font-size="13" lengthAdjust="spacing" textLength="191.3818" x="59.9277" y="747.0088">Display results + explanation</text></g><!--SRC=[TLJ1Rjim3BthAxZkqc8eSbYw0WKse4cw8a0oR0MAd5cPIOJ8aaV9IODX_pvAjbFNQmy1REkzHxv7CH_Ybag2og9nAkoCgv2nX42_QtAQu8y2k6NsXwctdk7Zv-lnzVYxV5oODIsCeuddWhWz7LzTtNuPowceHADDXIx2sMCWFWCCa1w6XzF5VBIYfyTvWvWFp-TkJPnRkNCRgPTXpUCG-b1RWWc61fFUmX2oC9fS89XDCaPUPvCXPkLPSjZ0aahFnunRBTLVfLBxSFbDceGR-Cb-Rme2TE5071JgQFOOALbGWX1SqwLW7se7vkJZOE8MreBlaLf3ggK8ERSlt7kAWDO2PpidGkEk0Ls-gaMnPfVXO4s8gg01ILdlAxX3lSqeiVzIzIHpjqTR9uxshZ3HU7UUMxuGEDe8q-upHAwJHbzbjKmApwHh4KZL1NQEHJ5YYNHFemEoknXmUWQqN2a8aIe9JUHH9troXKe_bQellIJ_5MuTscCmuPM5F5FH-LKJ7oM2Pk0bHImmOcg_YwERViDuAyMEBSFp0kn5sN7LVxwdMzAx4nCtibWX0bbJ6YVC58BsPIbUg6Z3x6xb2-YzS6JFBEa8U-CjfboJTxA1JXglrTyKMIBlPAvb9GfF-G9aXHy-3LlREeZkUzoPuLI_YnFacfWYTzAVKKVibgMDyz1kLfat2pwrm-t5skr1iq2PUq-EE9qnLPuZhDcNBJ6X4YpjPMejoD_OKN2XjZ68F3tB1zTqroiY6_eF]--></g></svg>