<svg xmlns="http://www.w3.org/2000/svg" xmlns:xlink="http://www.w3.org/1999/xlink" contentStyleType="text/css" data-diagram-type="ACTIVITY" height="985px" preserveAspectRatio="none" style="width:1300px;height:985px;background:#FFFFFF;" version="1.1" viewBox="0 0 1300 985" width="1300px" zoomAndPan="magnify"><title>LicenseWise - Inference Flow</title><defs/><g><g class="title" data-source-line="9"><text fill="#000000" font-family="Verdana" font-size="22" font-weight="bold" lengthAdjust="spacing" textLength="364.3857" x="466.6213" y="37.1182">LicenseWise - Inference Flow</text></g><rect fill="#FFFFFF" height="21.876" style="stroke:#FFFFFF;stroke-width:1;" width="1277.6284" x="10" y="55.0166"/><ellipse cx="201.1284" cy="91.8926" fill="#FFFFFF" rx="10" ry="10" style="stroke:#000000;stroke-width:1;"/><rect fill="#E3F2FD" height="34.584" rx="12.5" ry="12.5" style="stroke:#1565C0;stroke-width:1;" width="93.0137" x="154.6216" y="121.8926"/><text fill="#0D47A1" font-family="Verdana" font-size="12" lengthAdjust="spacing" textLength="73.0137" x="164.6216" y="143.957">Select Mode</text><polygon fill="#E3F2FD" points="183.4521,176.4766,218.8047,176.4766,230.8047,188.4766,218.8047,200.4766,183.4521,200.4766,171.4521,188.4766,183.4521,176.4766" style="stroke:#1565C0;stroke-width:1;"/><text fill="#0D47A1" font-family="Verdana" font-size="11" lengthAdjust="spacing" textLength="35.3525" x="183.4521" y="192.8513">Mode?</text><text fill="#000000" font-family="Verdana" font-size="11" lengthAdjust="spacing" textLength="105.9609" x="65.4912" y="186.167">[Recommendation]</text><text fill="#000000" font-family="Verdana" font-size="11" lengthAdjust="spacing" textLength="55.0859" x="230.8047" y="186.167">[Analysis]</text><rect fill="#E3F2FD" height="34.584" rx="12.5" ry="12.5" style="stroke:#1565C0;stroke-width:1;" width="172.3379" x="16" y="210.4766"/><text fill="#0D47A1" font-family="Verdana" font-size="12" lengthAdjust="spacing" textLength="152.3379" x="26" y="232.541">Answer project questions</text><rect fill="#E3F2FD" height="34.584" rx="12.5" ry="12.5" style="stroke:#1565C0;stroke-width:1;" width="93.2539" x="55.542" y="265.0605"/><text fill="#0D47A1" font-family="Verdana" font-size="12" lengthAdjust="spacing" textLength="73.2539" x="65.542" y="287.125">Collect facts</text><rect fill="#E3F2FD" height="34.584" rx="12.5" ry="12.5" style="stroke:#1565C0;stroke-width:1;" width="115.8945" x="242.1406" y="210.4766"/><text fill="#0D47A1" font-family="Verdana" font-size="12" lengthAdjust="spacing" textLength="95.8945" x="252.1406" y="232.541">Enter license ID</text><rect fill="#E3F2FD" height="34.584" rx="12.5" ry="12.5" style="stroke:#1565C0;stroke-width:1;" width="183.5" x="208.3379" y="265.0605"/><text fill="#0D47A1" font-family="Verdana" font-size="12" lengthAdjust="spacing" textLength="163.5" x="218.3379" y="287.125">Answer use-case questions</text><rect fill="#E3F2FD" height="34.584" rx="12.5" ry="12.5" style="stroke:#1565C0;stroke-width:1;" width="93.2539" x="253.4609" y="319.6445"/><text fill="#0D47A1" font-family="Verdana" font-size="12" lengthAdjust="spacing" textLength="73.2539" x="263.4609" y="341.709">Collect facts</text><polygon fill="#E3F2FD" points="201.1284,360.2285,213.1284,372.2285,201.1284,384.2285,189.1284,372.2285,201.1284,360.2285" style="stroke:#1565C0;stroke-width:1;"/><rect fill="#E3F2FD" height="34.584" rx="12.5" ry="12.5" style="stroke:#1565C0;stroke-width:1;" width="111.6992" x="145.2788" y="847.2014"/><text fill="#0D47A1" font-family="Verdana" font-size="12" lengthAdjust="spacing" textLength="91.6992" x="155.2788" y="869.2659">Display Results</text><rect fill="#E3F2FD" height="34.584" rx="12.5" ry="12.5" style="stroke:#1565C0;stroke-width:1;" width="203.1699" x="99.5435" y="901.7854"/><text fill="#0D47A1" font-family="Verdana" font-size="12" lengthAdjust="spacing" textLength="183.1699" x="109.5435" y="923.8499">Show explanation &amp; reasoning</text><ellipse cx="201.1284" cy="967.3694" fill="none" rx="11" ry="11" style="stroke:#000000;stroke-width:1;"/><ellipse cx="201.1284" cy="967.3694" fill="#FFFFFF" rx="6" ry="6" style="stroke:#000000;stroke-width:1;"/><line style="stroke:#000000;stroke-width:1;" x1="10" x2="10" y1="55.0166" y2="978.3694"/><polygon fill="#E3F2FD" points="734.703,404.2285,770.0555,404.2285,782.0555,416.2285,770.0555,428.2285,734.703,428.2285,722.703,416.2285,734.703,404.2285" style="stroke:#1565C0;stroke-width:1;"/><text fill="#0D47A1" font-family="Verdana" font-size="11" lengthAdjust="spacing" textLength="35.3525" x="734.703" y="420.6033">Mode?</text><text fill="#000000" font-family="Verdana" font-size="11" lengthAdjust="spacing" textLength="105.9609" x="616.7421" y="413.9189">[Recommendation]</text><text fill="#000000" font-family="Verdana" font-size="11" lengthAdjust="spacing" textLength="55.0859" x="782.0555" y="413.9189">[Analysis]</text><rect fill="#E3F2FD" height="34.584" rx="12.5" ry="12.5" style="stroke:#1565C0;stroke-width:1;" width="125.5742" x="464.6855" y="438.2285"/><text fill="#0D47A1" font-family="Verdana" font-size="12" lengthAdjust="spacing" textLength="105.5742" x="474.6855" y="460.293">Forward Chaining</text><rect fill="#E3F2FD" height="34.584" rx="12.5" ry="12.5" style="stroke:#1565C0;stroke-width:1;" width="199.8535" x="427.5459" y="492.8125"/><text fill="#0D47A1" font-family="Verdana" font-size="12" lengthAdjust="spacing" textLength="179.8535" x="437.5459" y="514.877">Evaluate all rules sequentially</text><rect fill="#E3F2FD" height="49.168" rx="12.5" ry="12.5" style="stroke:#1565C0;stroke-width:1;" width="251.2695" x="401.8379" y="547.3965"/><text fill="#0D47A1" font-family="Verdana" font-size="12" lengthAdjust="spacing" textLength="136.4941" x="411.8379" y="569.4609">Build Working Memory</text><text fill="#0D47A1" font-family="Verdana" font-size="12" lengthAdjust="spacing" textLength="231.2695" x="411.8379" y="584.0449">(recommended, eliminated, warnings)</text><rect fill="#E3F2FD" height="34.584" rx="12.5" ry="12.5" style="stroke:#1565C0;stroke-width:1;" width="195.4473" x="429.749" y="616.5645"/><text fill="#0D47A1" font-family="Verdana" font-size="12" lengthAdjust="spacing" textLength="175.4473" x="439.749" y="638.6289">Generate Report &amp; Summary</text><rect fill="#E3F2FD" height="34.584" rx="12.5" ry="12.5" style="stroke:#1565C0;stroke-width:1;" width="135.0605" x="909.7556" y="438.2285"/><text fill="#0D47A1" font-family="Verdana" font-size="12" lengthAdjust="spacing" textLength="115.0605" x="919.7556" y="460.293">Backward Chaining</text><rect fill="#E3F2FD" height="34.584" rx="12.5" ry="12.5" style="stroke:#1565C0;stroke-width:1;" width="239.3047" x="857.6335" y="492.8125"/><text fill="#0D47A1" font-family="Verdana" font-size="12" lengthAdjust="spacing" textLength="219.3047" x="867.6335" y="514.877">Run Forward Chaining as subroutine</text><rect fill="#E3F2FD" height="34.584" rx="12.5" ry="12.5" style="stroke:#1565C0;stroke-width:1;" width="256.2617" x="849.155" y="547.3965"/><text fill="#0D47A1" font-family="Verdana" font-size="12" lengthAdjust="spacing" textLength="236.2617" x="859.155" y="569.4609">Check license against Working Memory</text><polygon fill="#E3F2FD" points="708.9268,626.9805,817.0791,626.9805,829.0791,638.9805,817.0791,650.9805,708.9268,650.9805,696.9268,638.9805,708.9268,626.9805" style="stroke:#1565C0;stroke-width:1;"/><text fill="#000000" font-family="Verdana" font-size="11" lengthAdjust="spacing" textLength="29.0415" x="767.0029" y="662.0396">[Yes]</text><text fill="#0D47A1" font-family="Verdana" font-size="11" lengthAdjust="spacing" textLength="108.1523" x="708.9268" y="643.3552">License eliminated?</text><rect fill="#E3F2FD" height="34.584" rx="12.5" ry="12.5" style="stroke:#1565C0;stroke-width:1;" width="121.9238" x="702.041" y="684.3491"/><text fill="#0D47A1" font-family="Verdana" font-size="12" lengthAdjust="spacing" textLength="101.9238" x="712.041" y="706.4136">Collect violations</text><rect fill="#E3F2FD" height="34.584" rx="12.5" ry="12.5" style="stroke:#1565C0;stroke-width:1;" width="179.791" x="673.1074" y="742.6174"/><text fill="#0D47A1" font-family="Verdana" font-size="12" lengthAdjust="spacing" textLength="159.791" x="683.1074" y="764.6819">Mark as NOT COMPATIBLE</text><polygon fill="#E3F2FD" points="884.8984,626.9805,1014.2612,626.9805,1026.2612,638.9805,1014.2612,650.9805,884.8984,650.9805,872.8984,638.9805,884.8984,626.9805" style="stroke:#1565C0;stroke-width:1;"/><text fill="#000000" font-family="Verdana" font-size="11" lengthAdjust="spacing" textLength="29.0415" x="953.5798" y="662.0396">[Yes]</text><text fill="#0D47A1" font-family="Verdana" font-size="11" lengthAdjust="spacing" textLength="129.3628" x="884.8984" y="643.3552">License recommended?</text><text fill="#000000" font-family="Verdana" font-size="11" lengthAdjust="spacing" textLength="79.8359" x="1026.2612" y="636.6709">[No - fallback]</text><rect fill="#E3F2FD" height="34.584" rx="12.5" ry="12.5" style="stroke:#1565C0;stroke-width:1;" width="149.7559" x="874.7019" y="684.3491"/><text fill="#0D47A1" font-family="Verdana" font-size="12" lengthAdjust="spacing" textLength="129.7559" x="884.7019" y="706.4136">Mark as COMPATIBLE</text><rect fill="#E3F2FD" height="34.584" rx="12.5" ry="12.5" style="stroke:#1565C0;stroke-width:1;" width="155.9492" x="1085.8882" y="680.6648"/><text fill="#0D47A1" font-family="Verdana" font-size="12" lengthAdjust="spacing" textLength="135.9492" x="1095.8882" y="702.7292">Direct metadata check</text><rect fill="#E3F2FD" height="34.584" rx="12.5" ry="12.5" style="stroke:#1565C0;stroke-width:1;" width="235.2031" x="1046.2612" y="738.9331"/><text fill="#0D47A1" font-family="Verdana" font-size="12" lengthAdjust="spacing" textLength="215.2031" x="1056.2612" y="760.9976">Compare facts vs license conditions</text><polygon fill="#E3F2FD" points="752.3793,803.2014,764.3793,815.2014,752.3793,827.2014,740.3793,815.2014,752.3793,803.2014" style="stroke:#1565C0;stroke-width:1;"/><line style="stroke:#000000;stroke-width:1;" x1="395.8379" x2="395.8379" y1="55.0166" y2="978.3694"/><line style="stroke:#000000;stroke-width:1;" x1="1285.4644" x2="1285.4644" y1="55.0166" y2="978.3694"/><line style="stroke:#37474F;stroke-width:1;" x1="201.1284" x2="201.1284" y1="101.8926" y2="121.8926"/><polygon fill="#37474F" points="197.1284,111.8926,201.1284,121.8926,205.1284,111.8926,201.1284,115.8926" style="stroke:#37474F;stroke-width:1;"/><line style="stroke:#37474F;stroke-width:1;" x1="102.1689" x2="102.1689" y1="245.0605" y2="265.0605"/><polygon fill="#37474F" points="98.1689,255.0605,102.1689,265.0605,106.1689,255.0605,102.1689,259.0605" style="stroke:#37474F;stroke-width:1;"/><line style="stroke:#37474F;stroke-width:1;" x1="300.0879" x2="300.0879" y1="245.0605" y2="265.0605"/><polygon fill="#37474F" points="296.0879,255.0605,300.0879,265.0605,304.0879,255.0605,300.0879,259.0605" style="stroke:#37474F;stroke-width:1;"/><line style="stroke:#37474F;stroke-width:1;" x1="300.0879" x2="300.0879" y1="299.6445" y2="319.6445"/><polygon fill="#37474F" points="296.0879,309.6445,300.0879,319.6445,304.0879,309.6445,300.0879,313.6445" style="stroke:#37474F;stroke-width:1;"/><line style="stroke:#37474F;stroke-width:1;" x1="171.4521" x2="102.1689" y1="188.4766" y2="188.4766"/><line style="stroke:#37474F;stroke-width:1;" x1="102.1689" x2="102.1689" y1="188.4766" y2="210.4766"/><polygon fill="#37474F" points="98.1689,200.4766,102.1689,210.4766,106.1689,200.4766,102.1689,204.4766" style="stroke:#37474F;stroke-width:1;"/><line style="stroke:#37474F;stroke-width:1;" x1="230.8047" x2="300.0879" y1="188.4766" y2="188.4766"/><line style="stroke:#37474F;stroke-width:1;" x1="300.0879" x2="300.0879" y1="188.4766" y2="210.4766"/><polygon fill="#37474F" points="296.0879,200.4766,300.0879,210.4766,304.0879,200.4766,300.0879,204.4766" style="stroke:#37474F;stroke-width:1;"/><line style="stroke:#37474F;stroke-width:1;" x1="102.1689" x2="102.1689" y1="299.6445" y2="372.2285"/><line style="stroke:#37474F;stroke-width:1;" x1="102.1689" x2="189.1284" y1="372.2285" y2="372.2285"/><polygon fill="#37474F" points="179.1284,368.2285,189.1284,372.2285,179.1284,376.2285,183.1284,372.2285" style="stroke:#37474F;stroke-width:1;"/><line style="stroke:#37474F;stroke-width:1;" x1="300.0879" x2="300.0879" y1="354.2285" y2="372.2285"/><line style="stroke:#37474F;stroke-width:1;" x1="300.0879" x2="213.1284" y1="372.2285" y2="372.2285"/><polygon fill="#37474F" points="223.1284,368.2285,213.1284,372.2285,223.1284,376.2285,219.1284,372.2285" style="stroke:#37474F;stroke-width:1;"/><line style="stroke:#37474F;stroke-width:1;" x1="201.1284" x2="201.1284" y1="156.4766" y2="176.4766"/><polygon fill="#37474F" points="197.1284,166.4766,201.1284,176.4766,205.1284,166.4766,201.1284,170.4766" style="stroke:#37474F;stroke-width:1;"/><line style="stroke:#37474F;stroke-width:1;" x1="201.1284" x2="201.1284" y1="881.7854" y2="901.7854"/><polygon fill="#37474F" points="197.1284,891.7854,201.1284,901.7854,205.1284,891.7854,201.1284,895.7854" style="stroke:#37474F;stroke-width:1;"/><line style="stroke:#37474F;stroke-width:1;" x1="201.1284" x2="201.1284" y1="936.3694" y2="956.3694"/><polygon fill="#37474F" points="197.1284,946.3694,201.1284,956.3694,205.1284,946.3694,201.1284,950.3694" style="stroke:#37474F;stroke-width:1;"/><line style="stroke:#37474F;stroke-width:1;" x1="527.4727" x2="527.4727" y1="472.8125" y2="492.8125"/><polygon fill="#37474F" points="523.4727,482.8125,527.4727,492.8125,531.4727,482.8125,527.4727,486.8125" style="stroke:#37474F;stroke-width:1;"/><line style="stroke:#37474F;stroke-width:1;" x1="527.4727" x2="527.4727" y1="527.3965" y2="547.3965"/><polygon fill="#37474F" points="523.4727,537.3965,527.4727,547.3965,531.4727,537.3965,527.4727,541.3965" style="stroke:#37474F;stroke-width:1;"/><line style="stroke:#37474F;stroke-width:1;" x1="527.4727" x2="527.4727" y1="596.5645" y2="616.5645"/><polygon fill="#37474F" points="523.4727,606.5645,527.4727,616.5645,531.4727,606.5645,527.4727,610.5645" style="stroke:#37474F;stroke-width:1;"/><line style="stroke:#37474F;stroke-width:1;" x1="977.2859" x2="977.2859" y1="472.8125" y2="492.8125"/><polygon fill="#37474F" points="973.2859,482.8125,977.2859,492.8125,981.2859,482.8125,977.2859,486.8125" style="stroke:#37474F;stroke-width:1;"/><line style="stroke:#37474F;stroke-width:1;" x1="977.2859" x2="977.2859" y1="527.3965" y2="547.3965"/><polygon fill="#37474F" points="973.2859,537.3965,977.2859,547.3965,981.2859,537.3965,977.2859,541.3965" style="stroke:#37474F;stroke-width:1;"/><line style="stroke:#37474F;stroke-width:1;" x1="763.0029" x2="763.0029" y1="718.9331" y2="742.6174"/><polygon fill="#37474F" points="759.0029,732.6174,763.0029,742.6174,767.0029,732.6174,763.0029,736.6174" style="stroke:#37474F;stroke-width:1;"/><line style="stroke:#37474F;stroke-width:1;" x1="1163.8628" x2="1163.8628" y1="715.2488" y2="738.9331"/><polygon fill="#37474F" points="1159.8628,728.9331,1163.8628,738.9331,1167.8628,728.9331,1163.8628,732.9331" style="stroke:#37474F;stroke-width:1;"/><line style="stroke:#37474F;stroke-width:1;" x1="763.0029" x2="763.0029" y1="650.9805" y2="684.3491"/><polygon fill="#37474F" points="759.0029,674.3491,763.0029,684.3491,767.0029,674.3491,763.0029,678.3491" style="stroke:#37474F;stroke-width:1;"/><line style="stroke:#37474F;stroke-width:1;" x1="763.0029" x2="763.0029" y1="777.2014" y2="797.2014"/><polygon fill="#37474F" points="759.0029,787.2014,763.0029,797.2014,767.0029,787.2014,763.0029,791.2014" style="stroke:#37474F;stroke-width:1;"/><line style="stroke:#37474F;stroke-width:1;" x1="949.5798" x2="949.5798" y1="650.9805" y2="684.3491"/><polygon fill="#37474F" points="945.5798,674.3491,949.5798,684.3491,953.5798,674.3491,949.5798,678.3491" style="stroke:#37474F;stroke-width:1;"/><line style="stroke:#37474F;stroke-width:1;" x1="949.5798" x2="949.5798" y1="718.9331" y2="797.2014"/><polygon fill="#37474F" points="945.5798,787.2014,949.5798,797.2014,953.5798,787.2014,949.5798,791.2014" style="stroke:#37474F;stroke-width:1;"/><line style="stroke:#37474F;stroke-width:1;" x1="829.0791" x2="872.8984" y1="638.9805" y2="638.9805"/><polygon fill="#37474F" points="862.8984,634.9805,872.8984,638.9805,862.8984,642.9805,866.8984,638.9805" style="stroke:#37474F;stroke-width:1;"/><line style="stroke:#37474F;stroke-width:1;" x1="977.2859" x2="977.2859" y1="581.9805" y2="601.9805"/><line style="stroke:#37474F;stroke-width:1;" x1="977.2859" x2="763.0029" y1="601.9805" y2="601.9805"/><line style="stroke:#37474F;stroke-width:1;" x1="763.0029" x2="763.0029" y1="601.9805" y2="626.9805"/><polygon fill="#37474F" points="759.0029,616.9805,763.0029,626.9805,767.0029,616.9805,763.0029,620.9805" style="stroke:#37474F;stroke-width:1;"/><line style="stroke:#37474F;stroke-width:1;" x1="1026.2612" x2="1163.8628" y1="638.9805" y2="638.9805"/><line style="stroke:#37474F;stroke-width:1;" x1="1163.8628" x2="1163.8628" y1="638.9805" y2="680.6648"/><polygon fill="#37474F" points="1159.8628,670.6648,1163.8628,680.6648,1167.8628,670.6648,1163.8628,674.6648" style="stroke:#37474F;stroke-width:1;"/><line style="stroke:#37474F;stroke-width:1;" x1="1163.8628" x2="1163.8628" y1="773.5171" y2="797.2014"/><polygon fill="#37474F" points="1159.8628,787.2014,1163.8628,797.2014,1167.8628,787.2014,1163.8628,791.2014" style="stroke:#37474F;stroke-width:1;"/><line style="stroke:#37474F;stroke-width:1;" x1="763.0029" x2="1163.8628" y1="797.2014" y2="797.2014"/><line style="stroke:#37474F;stroke-width:1;" x1="722.703" x2="527.4727" y1="416.2285" y2="416.2285"/><line style="stroke:#37474F;stroke-width:1;" x1="527.4727" x2="527.4727" y1="416.2285" y2="438.2285"/><polygon fill="#37474F" points="523.4727,428.2285,527.4727,438.2285,531.4727,428.2285,527.4727,432.2285" style="stroke:#37474F;stroke-width:1;"/><line style="stroke:#37474F;stroke-width:1;" x1="782.0555" x2="977.2859" y1="416.2285" y2="416.2285"/><line style="stroke:#37474F;stroke-width:1;" x1="977.2859" x2="977.2859" y1="416.2285" y2="438.2285"/><polygon fill="#37474F" points="973.2859,428.2285,977.2859,438.2285,981.2859,428.2285,977.2859,432.2285" style="stroke:#37474F;stroke-width:1;"/><line style="stroke:#37474F;stroke-width:1;" x1="527.4727" x2="527.4727" y1="651.1484" y2="815.2014"/><line style="stroke:#37474F;stroke-width:1;" x1="527.4727" x2="740.3793" y1="815.2014" y2="815.2014"/><polygon fill="#37474F" points="730.3793,811.2014,740.3793,815.2014,730.3793,819.2014,734.3793,815.2014" style="stroke:#37474F;stroke-width:1;"/><line style="stroke:#37474F;stroke-width:1;" x1="977.2859" x2="977.2859" y1="797.2014" y2="815.2014"/><line style="stroke:#37474F;stroke-width:1;" x1="977.2859" x2="764.3793" y1="815.2014" y2="815.2014"/><polygon fill="#37474F" points="774.3793,811.2014,764.3793,815.2014,774.3793,819.2014,770.3793,815.2014" style="stroke:#37474F;stroke-width:1;"/><line style="stroke:#37474F;stroke-width:1;" x1="201.1284" x2="201.1284" y1="384.2285" y2="389.2285"/><line style="stroke:#37474F;stroke-width:1;" x1="201.1284" x2="752.3793" y1="389.2285" y2="389.2285"/><line style="stroke:#37474F;stroke-width:1;" x1="752.3793" x2="752.3793" y1="389.2285" y2="404.2285"/><polygon fill="#37474F" points="748.3793,394.2285,752.3793,404.2285,756.3793,394.2285,752.3793,398.2285" style="stroke:#37474F;stroke-width:1;"/><line style="stroke:#37474F;stroke-width:1;" x1="752.3793" x2="752.3793" y1="827.2014" y2="832.2014"/><line style="stroke:#37474F;stroke-width:1;" x1="752.3793" x2="201.1284" y1="832.2014" y2="832.2014"/><line style="stroke:#37474F;stroke-width:1;" x1="201.1284" x2="201.1284" y1="832.2014" y2="847.2014"/><polygon fill="#37474F" points="197.1284,837.2014,201.1284,847.2014,205.1284,837.2014,201.1284,841.2014" style="stroke:#37474F;stroke-width:1;"/><text fill="#000000" font-family="Verdana" font-size="18" lengthAdjust="spacing" textLength="40.957" x="182.4404" y="73.1133">User</text><text fill="#000000" font-family="Verdana" font-size="18" lengthAdjust="spacing" textLength="153.2813" x="764.0105" y="73.1133">Inference Engine</text><!--SRC=[ZLFlQnf14Fs-VyMKGb5e86bC1VrG_7L5Y4dHb51iFspkHjswDsjdzpH7xV_UMK-Df6aft8TZPlVDU_FUlWeBp15MLXjIVcbefLddeDDWrYQKy5C1T7MwdBChAEivwnXU3owJTqa_TXndoFlgnTNxgzwvL1D7OLyxxpUQdGkfTPZTPb-yR3QQZKJzKYgOO16kJOhayTvuX3COqWmPAKL8hDiejVtiaRVA1yr1jIPeCGqmSXcsbJ8pgCNV3tKG7GIrwHXJb-T8cGx6qRUwZ6vro6-GOSNkUxpxeq0VcxuTcy9fXpWJoL91AoHgqmvfMthZAu011RblAvemxBTFK0kFPwcMyhzXAJCpqV8aRa1pGxZzJmc9uutc37eBySdGV3TZiDQsq051MmjSMFJWKMXGC58fTsUwXR4Pt3iMQ-Smmjnn-PLgV9Y1sLj0Qt930YJ_CYNY-_hkzaSav3XXZ2l70Tx0fCXppULV5XMJyYVFSK7mN01e8LiyIAg2hA5QsGBJvN7BUYu7VNX6FHwKBovjdveJzayh_88LeHCZriPPVVH76YFDoyZYvlOEUhUZJvsxOVTw49ixQQSZJhRruem3r0imjUcDar3Fn907MSxXHjzm99LZq6ApXZHgRnyOv_88iOeEhFrn9QcJ51qbL94w1Ajw98BhvIcNufSlR0nUQx9m6y17gT9EldZ8gBsht95dvLRgDm00]--></g></svg>