<svg xmlns="http://www.w3.org/2000/svg" xmlns:xlink="http://www.w3.org/1999/xlink" contentStyleType="text/css" data-diagram-type="DESCRIPTION" height="763px" preserveAspectRatio="none" style="width:1860px;height:763px;background:#FAFAFA;" version="1.1" viewBox="0 0 1860 763" width="1860px" zoomAndPan="magnify"><title>LicenseWise - System Architecture (KBS)</title><defs/><g><rect fill="#FAFAFA" height="763" style="stroke:none;stroke-width:1;" width="1860" x="0" y="0"/><g class="title" data-source-line="25"><text fill="#000000" font-family="Verdana" font-size="22" font-weight="bold" lengthAdjust="spacing" textLength="510.2109" x="670.3945" y="37.1182">LicenseWise - System Architecture (KBS)</text></g><!--cluster User Interface Layer--><g class="cluster" data-entity="User Interface Layer" data-source-line="28" data-uid="ent0002" id="cluster_User Interface Layer"><polygon fill="#F3E5F5" points="533,76.6373,543,66.6373,876,66.6373,876,155.2373,866,165.2373,533,165.2373,533,76.6373" style="stroke:#7B1FA2;stroke-width:1;"/><line style="stroke:#7B1FA2;stroke-width:1;" x1="866" x2="876" y1="76.6373" y2="66.6373"/><line style="stroke:#7B1FA2;stroke-width:1;" x1="533" x2="866" y1="76.6373" y2="76.6373"/><line style="stroke:#7B1FA2;stroke-width:1;" x1="866" x2="866" y1="76.6373" y2="165.2373"/><text fill="#000000" font-family="Verdana" font-size="14" font-weight="bold" lengthAdjust="spacing" textLength="162.1895" x="619.4053" y="93.7125">User Interface Layer</text></g><!--cluster Inference Engine--><g class="cluster" data-entity="Inference Engine" data-source-line="36" data-uid="ent0011" id="cluster_Inference Engine"><polygon fill="#F3E5F5" points="21,230.1373,31,220.1373,422,220.1373,422,733.8573,412,743.8573,21,743.8573,21,230.1373" style="stroke:#7B1FA2;stroke-width:1;"/><line style="stroke:#7B1FA2;stroke-width:1;" x1="412" x2="422" y1="230.1373" y2="220.1373"/><line style="stroke:#7B1FA2;stroke-width:1;" x1="21" x2="412" y1="230.1373" y2="230.1373"/><line style="stroke:#7B1FA2;stroke-width:1;" x1="412" x2="412" y1="230.1373" y2="743.8573"/><text fill="#000000" font-family="Verdana" font-size="14" font-weight="bold" lengthAdjust="spacing" textLength="134.7568" x="150.1216" y="247.2125">Inference Engine</text></g><!--cluster Knowledge Base--><g class="cluster" data-entity="Knowledge Base" data-source-line="46" data-uid="ent0024" id="cluster_Knowledge Base"><path d="M446,643.0573 C446,633.0573 934.5,633.0573 934.5,633.0573 C934.5,633.0573 1423,633.0573 1423,643.0573 L1423,736.0673 C1423,746.0673 934.5,746.0673 934.5,746.0673 C934.5,746.0673 446,746.0673 446,736.0673 L446,643.0573" fill="#E8F5E9" style="stroke:#2E7D32;stroke-width:1;"/><path d="M446,643.0573 C446,653.0573 934.5,653.0573 934.5,653.0573 C934.5,653.0573 1423,653.0573 1423,643.0573" fill="none" style="stroke:#2E7D32;stroke-width:1;"/><text fill="#000000" font-family="Verdana" font-size="14" font-weight="bold" lengthAdjust="spacing" textLength="129.4521" x="869.7739" y="669.1325">Knowledge Base</text></g><!--cluster Utilities & Helpers--><g class="cluster" data-entity="Utilities . Helpers" data-source-line="56" data-uid="ent0037" id="cluster_Utilities . Helpers"><polygon fill="#F3E5F5" points="1396,68.7373,1406,58.7373,1614,58.7373,1614,420.4573,1604,430.4573,1396,430.4573,1396,68.7373" style="stroke:#7B1FA2;stroke-width:1;"/><line style="stroke:#7B1FA2;stroke-width:1;" x1="1604" x2="1614" y1="68.7373" y2="58.7373"/><line style="stroke:#7B1FA2;stroke-width:1;" x1="1396" x2="1604" y1="68.7373" y2="68.7373"/><line style="stroke:#7B1FA2;stroke-width:1;" x1="1604" x2="1604" y1="68.7373" y2="430.4573"/><text fill="#000000" font-family="Verdana" font-size="14" font-weight="bold" lengthAdjust="spacing" textLength="142.666" x="1429.667" y="85.8125">Utilities &amp; Helpers</text></g><!--cluster License Data Sources--><g class="cluster" data-entity="License Data Sources" data-source-line="63" data-uid="ent0043" id="cluster_License Data Sources"><path d="M1447,489.7473 C1447,479.7473 1645,479.7473 1645,479.7473 C1645,479.7473 1843,479.7473 1843,489.7473 L1843,733.8573 C1843,743.8573 1645,743.8573 1645,743.8573 C1645,743.8573 1447,743.8573 1447,733.8573 L1447,489.7473" fill="#E8F5E9" style="stroke:#2E7D32;stroke-width:1;"/><path d="M1447,489.7473 C1447,499.7473 1645,499.7473 1645,499.7473 C1645,499.7473 1843,499.7473 1843,489.7473" fill="none" style="stroke:#2E7D32;stroke-width:1;"/><text fill="#000000" font-family="Verdana" font-size="14" font-weight="bold" lengthAdjust="spacing" textLength="167.4189" x="1561.2905" y="515.8225">License Data Sources</text></g><!--entity CLI--><g class="entity" data-entity="CLI" data-source-line="29" data-uid="ent0003" id="entity_CLI"><ellipse cx="558" cy="128.4373" fill="#FFF9C4" rx="8" ry="8" style="stroke:#F9A825;stroke-width:1;"/><text fill="#000000" font-family="Verdana" font-size="14" lengthAdjust="spacing" textLength="91.9297" x="512.0352" y="159.5125">CLI Interface</text></g><!--entity WEBUI--><g class="entity" data-entity="WEBUI" data-source-line="30" data-uid="ent0004" id="entity_WEBUI"><ellipse cx="702" cy="128.4373" fill="#FFF9C4" rx="8" ry="8" style="stroke:#F9A825;stroke-width:1;"/><text fill="#000000" font-family="Verdana" font-size="14" lengthAdjust="spacing" textLength="103.1885" x="650.4058" y="159.5125">Gradio Web UI</text></g><g class="entity" data-entity="GMN5" data-source-line="31" data-uid="ent0006" id="entity_GMN5"><path d="M745.6,107.6373 L745.6,124.4373 L711.47,128.4373 L745.6,132.4373 L745.6,149.2359 A0,0 0 0 0 745.6,149.2359 L860.4057,149.2359 A0,0 0 0 0 860.4057,149.2359 L860.4057,117.6373 L850.4057,107.6373 L745.6,107.6373 A0,0 0 0 0 745.6,107.6373" fill="#FFFFFF" style="stroke:#000000;stroke-width:1;"/><path d="M850.4057,107.6373 L850.4057,117.6373 L860.4057,117.6373 L850.4057,107.6373" fill="#FFFFFF" style="stroke:#000000;stroke-width:1;"/><text fill="#000000" font-family="Verdana" font-size="13" lengthAdjust="spacing" textLength="93.8057" x="751.6" y="125.7071">gradio_app.py</text><text fill="#000000" font-family="Verdana" font-size="13" lengthAdjust="spacing" textLength="55.9482" x="751.6" y="141.5064">style.css</text></g><g class="entity" data-entity="GMN8" data-source-line="32" data-uid="ent0009" id="entity_GMN8"><path d="M602.29,115.5373 L602.29,124.4373 L567.28,128.4373 L602.29,132.4373 L602.29,141.3366 A0,0 0 0 0 602.29,141.3366 L657.7197,141.3366 A0,0 0 0 0 657.7197,141.3366 L657.7197,125.5373 L647.7197,115.5373 L602.29,115.5373 A0,0 0 0 0 602.29,115.5373" fill="#FFFFFF" style="stroke:#000000;stroke-width:1;"/><path d="M647.7197,115.5373 L647.7197,125.5373 L657.7197,125.5373 L647.7197,115.5373" fill="#FFFFFF" style="stroke:#000000;stroke-width:1;"/><text fill="#000000" font-family="Verdana" font-size="13" lengthAdjust="spacing" textLength="34.4297" x="608.29" y="133.6071">cli.py</text></g><!--entity FC--><g class="entity" data-entity="FC" data-source-line="37" data-uid="ent0012" id="entity_FC"><rect fill="#E1F5FE" height="37.0146" rx="2.5" ry="2.5" style="stroke:#0277BD;stroke-width:1;" width="143.1699" x="257.42" y="377.4373"/><text fill="#01579B" font-family="Verdana" font-size="14" lengthAdjust="spacing" textLength="123.1699" x="267.42" y="401.5125">Forward Chaining</text></g><!--entity BC--><g class="entity" data-entity="BC" data-source-line="38" data-uid="ent0013" id="entity_BC"><rect fill="#E1F5FE" height="37.0146" rx="2.5" ry="2.5" style="stroke:#0277BD;stroke-width:1;" width="154.2373" x="251.88" y="261.1373"/><text fill="#01579B" font-family="Verdana" font-size="14" lengthAdjust="spacing" textLength="134.2373" x="261.88" y="285.2125">Backward Chaining</text></g><!--entity EE--><g class="entity" data-entity="EE" data-source-line="39" data-uid="ent0014" id="entity_EE"><rect fill="#E1F5FE" height="37.0146" rx="2.5" ry="2.5" style="stroke:#0277BD;stroke-width:1;" width="154.4902" x="251.75" y="530.7473"/><text fill="#01579B" font-family="Verdana" font-size="14" lengthAdjust="spacing" textLength="134.4902" x="261.75" y="554.8225">Explanation Engine</text></g><g class="entity" data-entity="GMN15" data-source-line="40" data-uid="ent0016" id="entity_GMN15"><path d="M37.07,528.4573 L37.07,570.0559 L216.9201,570.0559 L216.9201,538.4573 L206.9201,528.4573 L37.07,528.4573" fill="#FFFFFF" style="stroke:#000000;stroke-width:1;"/><path d="M206.9201,528.4573 L206.9201,538.4573 L216.9201,538.4573 L206.9201,528.4573" fill="#FFFFFF" style="stroke:#000000;stroke-width:1;"/><text fill="#000000" font-family="Verdana" font-size="13" lengthAdjust="spacing" textLength="113.4897" x="43.07" y="546.5271">forward_chain.py</text><text fill="#000000" font-family="Verdana" font-size="13" lengthAdjust="spacing" textLength="158.8501" x="43.07" y="562.3264">Forward Rule Evaluation</text></g><g class="entity" data-entity="GMN18" data-source-line="41" data-uid="ent0019" id="entity_GMN18"><path d="M65.55,375.1473 L65.55,416.7459 A0,0 0 0 0 65.55,416.7459 L222.4597,416.7459 A0,0 0 0 0 222.4597,416.7459 L222.4597,385.1473 L212.4597,375.1473 L180.75,375.1473 L300.09,298.4973 L172.75,375.1473 L65.55,375.1473 A0,0 0 0 0 65.55,375.1473" fill="#FFFFFF" style="stroke:#000000;stroke-width:1;"/><path d="M212.4597,375.1473 L212.4597,385.1473 L222.4597,385.1473 L212.4597,375.1473" fill="#FFFFFF" style="stroke:#000000;stroke-width:1;"/><text fill="#000000" font-family="Verdana" font-size="13" lengthAdjust="spacing" textLength="125.855" x="71.55" y="393.2171">backward_chain.py</text><text fill="#000000" font-family="Verdana" font-size="13" lengthAdjust="spacing" textLength="135.9097" x="71.55" y="409.0164">Goal-Driven Analysis</text></g><g class="entity" data-entity="GMN21" data-source-line="42" data-uid="ent0022" id="entity_GMN21"><path d="M236.43,686.2573 L236.43,727.8559 A0,0 0 0 0 236.43,727.8559 L405.5779,727.8559 A0,0 0 0 0 405.5779,727.8559 L405.5779,696.2573 L395.5779,686.2573 L326.03,686.2573 L328.08,568.1273 L318.03,686.2573 L236.43,686.2573 A0,0 0 0 0 236.43,686.2573" fill="#FFFFFF" style="stroke:#000000;stroke-width:1;"/><path d="M395.5779,686.2573 L395.5779,696.2573 L405.5779,696.2573 L395.5779,686.2573" fill="#FFFFFF" style="stroke:#000000;stroke-width:1;"/><text fill="#000000" font-family="Verdana" font-size="13" lengthAdjust="spacing" textLength="148.1479" x="242.43" y="704.3271">explanation_engine.py</text><text fill="#000000" font-family="Verdana" font-size="13" lengthAdjust="spacing" textLength="119.9707" x="242.43" y="720.1264">Report Generation</text></g><!--entity RULES--><g class="entity" data-entity="RULES" data-source-line="47" data-uid="ent0025" id="entity_RULES"><path d="M806.33,694.0573 C806.33,684.0573 850.9985,684.0573 850.9985,684.0573 C850.9985,684.0573 895.6669,684.0573 895.6669,694.0573 L895.6669,720.072 C895.6669,730.072 850.9985,730.072 850.9985,730.072 C850.9985,730.072 806.33,730.072 806.33,720.072 L806.33,694.0573" fill="#E8F5E9" style="stroke:#2E7D32;stroke-width:1;"/><path d="M806.33,694.0573 C806.33,704.0573 850.9985,704.0573 850.9985,704.0573 C850.9985,704.0573 895.6669,704.0573 895.6669,694.0573" fill="none" style="stroke:#2E7D32;stroke-width:1;"/><text fill="#000000" font-family="Verdana" font-size="14" lengthAdjust="spacing" textLength="69.3369" x="816.33" y="722.1325">Rule Base</text></g><!--entity LICDB--><g class="entity" data-entity="LICDB" data-source-line="48" data-uid="ent0026" id="entity_LICDB"><path d="M1095.72,694.0573 C1095.72,684.0573 1167.0042,684.0573 1167.0042,684.0573 C1167.0042,684.0573 1238.2884,684.0573 1238.2884,694.0573 L1238.2884,720.072 C1238.2884,730.072 1167.0042,730.072 1167.0042,730.072 C1167.0042,730.072 1095.72,730.072 1095.72,720.072 L1095.72,694.0573" fill="#E8F5E9" style="stroke:#2E7D32;stroke-width:1;"/><path d="M1095.72,694.0573 C1095.72,704.0573 1167.0042,704.0573 1167.0042,704.0573 C1167.0042,704.0573 1238.2884,704.0573 1238.2884,694.0573" fill="none" style="stroke:#2E7D32;stroke-width:1;"/><text fill="#000000" font-family="Verdana" font-size="14" lengthAdjust="spacing" textLength="122.5684" x="1105.72" y="722.1325">License Database</text></g><!--entity WM--><g class="entity" data-entity="WM" data-source-line="49" data-uid="ent0027" id="entity_WM"><path d="M462.27,694.0573 C462.27,684.0573 531.999,684.0573 531.999,684.0573 C531.999,684.0573 601.728,684.0573 601.728,694.0573 L601.728,720.072 C601.728,730.072 531.999,730.072 531.999,730.072 C531.999,730.072 462.27,730.072 462.27,720.072 L462.27,694.0573" fill="#E8F5E9" style="stroke:#2E7D32;stroke-width:1;"/><path d="M462.27,694.0573 C462.27,704.0573 531.999,704.0573 531.999,704.0573 C531.999,704.0573 601.728,704.0573 601.728,694.0573" fill="none" style="stroke:#2E7D32;stroke-width:1;"/><text fill="#000000" font-family="Verdana" font-size="14" lengthAdjust="spacing" textLength="119.458" x="472.27" y="722.1325">Working Memory</text></g><g class="entity" data-entity="GMN28" data-source-line="50" data-uid="ent0029" id="entity_GMN28"><path d="M930.95,686.2573 L930.95,703.0573 L896.03,707.0573 L930.95,711.0573 L930.95,727.8559 A0,0 0 0 0 930.95,727.8559 L1061.0535,727.8559 A0,0 0 0 0 1061.0535,727.8559 L1061.0535,696.2573 L1051.0535,686.2573 L930.95,686.2573 A0,0 0 0 0 930.95,686.2573" fill="#FFFFFF" style="stroke:#000000;stroke-width:1;"/><path d="M1051.0535,686.2573 L1051.0535,696.2573 L1061.0535,696.2573 L1051.0535,686.2573" fill="#FFFFFF" style="stroke:#000000;stroke-width:1;"/><text fill="#000000" font-family="Verdana" font-size="13" lengthAdjust="spacing" textLength="52.3809" x="936.95" y="704.3271">rules.py</text><text fill="#000000" font-family="Verdana" font-size="13" lengthAdjust="spacing" textLength="109.1035" x="936.95" y="720.1264">Production Rules</text></g><g class="entity" data-entity="GMN31" data-source-line="51" data-uid="ent0032" id="entity_GMN31"><path d="M1272.95,686.2573 L1272.95,703.0573 L1238.63,707.0573 L1272.95,711.0573 L1272.95,727.8559 A0,0 0 0 0 1272.95,727.8559 L1407.0525,727.8559 A0,0 0 0 0 1407.0525,727.8559 L1407.0525,696.2573 L1397.0525,686.2573 L1272.95,686.2573 A0,0 0 0 0 1272.95,686.2573" fill="#FFFFFF" style="stroke:#000000;stroke-width:1;"/><path d="M1397.0525,686.2573 L1397.0525,696.2573 L1407.0525,696.2573 L1397.0525,686.2573" fill="#FFFFFF" style="stroke:#000000;stroke-width:1;"/><text fill="#000000" font-family="Verdana" font-size="13" lengthAdjust="spacing" textLength="68.4468" x="1278.95" y="704.3271">JSON Files</text><text fill="#000000" font-family="Verdana" font-size="13" lengthAdjust="spacing" textLength="113.1025" x="1278.95" y="720.1264">License Metadata</text></g><g class="entity" data-entity="GMN34" data-source-line="52" data-uid="ent0035" id="entity_GMN34"><path d="M636.57,686.2573 L636.57,703.0573 L602.21,707.0573 L636.57,711.0573 L636.57,727.8559 A0,0 0 0 0 636.57,727.8559 L771.4343,727.8559 A0,0 0 0 0 771.4343,727.8559 L771.4343,696.2573 L761.4343,686.2573 L636.57,686.2573 A0,0 0 0 0 636.57,686.2573" fill="#FFFFFF" style="stroke:#000000;stroke-width:1;"/><path d="M761.4343,686.2573 L761.4343,696.2573 L771.4343,696.2573 L761.4343,686.2573" fill="#FFFFFF" style="stroke:#000000;stroke-width:1;"/><text fill="#000000" font-family="Verdana" font-size="13" lengthAdjust="spacing" textLength="95.2466" x="642.57" y="704.3271">Dynamic Facts</text><text fill="#000000" font-family="Verdana" font-size="13" lengthAdjust="spacing" textLength="113.8643" x="642.57" y="720.1264">Inference Results</text></g><!--entity UTILS--><g class="entity" data-entity="UTILS" data-source-line="57" data-uid="ent0038" id="entity_UTILS"><rect fill="#E1F5FE" height="37.0146" rx="2.5" ry="2.5" style="stroke:#0277BD;stroke-width:1;" width="140.0664" x="1434.97" y="261.1373"/><text fill="#01579B" font-family="Verdana" font-size="14" lengthAdjust="spacing" textLength="120.0664" x="1444.97" y="285.2125">Common Utilities</text></g><!--entity LOADER--><g class="entity" data-entity="LOADER" data-source-line="58" data-uid="ent0039" id="entity_LOADER"><rect fill="#E1F5FE" height="37.0146" rx="2.5" ry="2.5" style="stroke:#0277BD;stroke-width:1;" width="124.4189" x="1450.79" y="377.4373"/><text fill="#01579B" font-family="Verdana" font-size="14" lengthAdjust="spacing" textLength="104.4189" x="1460.79" y="401.5125">License Loader</text></g><g class="entity" data-entity="GMN40" data-source-line="59" data-uid="ent0041" id="entity_GMN40"><path d="M1443.46,99.7373 L1443.46,157.1353 A0,0 0 0 0 1443.46,157.1353 L1501,157.1353 L1505,260.9873 L1509,157.1353 L1566.5367,157.1353 A0,0 0 0 0 1566.5367,157.1353 L1566.5367,109.7373 L1556.5367,99.7373 L1443.46,99.7373 A0,0 0 0 0 1443.46,99.7373" fill="#FFFFFF" style="stroke:#000000;stroke-width:1;"/><path d="M1556.5367,99.7373 L1556.5367,109.7373 L1566.5367,109.7373 L1556.5367,99.7373" fill="#FFFFFF" style="stroke:#000000;stroke-width:1;"/><text fill="#000000" font-family="Verdana" font-size="13" lengthAdjust="spacing" textLength="76.5908" x="1449.46" y="117.8071">common.py</text><text fill="#000000" font-family="Verdana" font-size="13" lengthAdjust="spacing" textLength="102.0767" x="1449.46" y="133.6064">Fact conversion</text><text fill="#000000" font-family="Verdana" font-size="13" lengthAdjust="spacing" textLength="82.583" x="1449.46" y="149.4058">Data loading</text></g><!--entity SPDX--><g class="entity" data-entity="SPDX" data-source-line="64" data-uid="ent0044" id="entity_SPDX"><path d="M1462.63,533.2473 L1462.63,565.262 A2.5,2.5 0 0 0 1465.13,567.762 L1560.8693,567.762 A2.5,2.5 0 0 0 1563.3693,565.262 L1563.3693,540.7473 L1553.3693,530.7473 L1465.13,530.7473 A2.5,2.5 0 0 0 1462.63,533.2473" fill="#FFFFFF" style="stroke:#000000;stroke-width:1;"/><path d="M1553.3693,530.7473 L1553.3693,538.2473 A2.5,2.5 0 0 0 1555.8693,540.7473 L1563.3693,540.7473" fill="#FFFFFF" style="stroke:#000000;stroke-width:1;"/><text fill="#000000" font-family="Verdana" font-size="14" lengthAdjust="spacing" textLength="80.7393" x="1472.63" y="554.8225">SPDX JSON</text></g><!--entity FAMILIES--><g class="entity" data-entity="FAMILIES" data-source-line="65" data-uid="ent0045" id="entity_FAMILIES"><path d="M1598.21,533.2473 L1598.21,565.262 A2.5,2.5 0 0 0 1600.71,567.762 L1679.2979,567.762 A2.5,2.5 0 0 0 1681.7979,565.262 L1681.7979,540.7473 L1671.7979,530.7473 L1600.71,530.7473 A2.5,2.5 0 0 0 1598.21,533.2473" fill="#FFFFFF" style="stroke:#000000;stroke-width:1;"/><path d="M1671.7979,530.7473 L1671.7979,538.2473 A2.5,2.5 0 0 0 1674.2979,540.7473 L1681.7979,540.7473" fill="#FFFFFF" style="stroke:#000000;stroke-width:1;"/><text fill="#000000" font-family="Verdana" font-size="14" lengthAdjust="spacing" textLength="63.5879" x="1608.21" y="554.8225">Families/</text></g><!--entity MERGED--><g class="entity" data-entity="MERGED" data-source-line="66" data-uid="ent0046" id="entity_MERGED"><path d="M1717.17,533.2473 L1717.17,565.262 A2.5,2.5 0 0 0 1719.67,567.762 L1824.337,567.762 A2.5,2.5 0 0 0 1826.837,565.262 L1826.837,540.7473 L1816.837,530.7473 L1719.67,530.7473 A2.5,2.5 0 0 0 1717.17,533.2473" fill="#FFFFFF" style="stroke:#000000;stroke-width:1;"/><path d="M1816.837,530.7473 L1816.837,538.2473 A2.5,2.5 0 0 0 1819.337,540.7473 L1826.837,540.7473" fill="#FFFFFF" style="stroke:#000000;stroke-width:1;"/><text fill="#000000" font-family="Verdana" font-size="14" lengthAdjust="spacing" textLength="89.667" x="1727.17" y="554.8225">licenses.json</text></g><g class="entity" data-entity="GMN47" data-source-line="67" data-uid="ent0048" id="entity_GMN47"><path d="M1679.32,686.2573 L1679.32,727.8559 A0,0 0 0 0 1679.32,727.8559 L1826.6764,727.8559 A0,0 0 0 0 1826.6764,727.8559 L1826.6764,696.2573 L1816.6764,686.2573 L1759.45,686.2573 L1769.82,568.1273 L1751.45,686.2573 L1679.32,686.2573 A0,0 0 0 0 1679.32,686.2573" fill="#FFFFFF" style="stroke:#000000;stroke-width:1;"/><path d="M1816.6764,686.2573 L1816.6764,696.2573 L1826.6764,696.2573 L1816.6764,686.2573" fill="#FFFFFF" style="stroke:#000000;stroke-width:1;"/><text fill="#000000" font-family="Verdana" font-size="13" lengthAdjust="spacing" textLength="126.3564" x="1685.32" y="704.3271">families_merger.py</text><text fill="#000000" font-family="Verdana" font-size="13" lengthAdjust="spacing" textLength="122.0781" x="1685.32" y="720.1264">Merges family files</text></g><!--link FC to GMN15--><g class="link" data-entity-1="FC" data-entity-2="GMN15" data-source-line="40" data-uid="lnk17" id="link_FC_GMN15"><path d="M292.52,414.8673 C276.55,422.4773 257.49,431.2373 240,438.4573 C229.95,442.5973 225.99,440.6473 217,446.7473 C184.44,468.8173 156.06,505.2873 140.27,527.9773" fill="none" id="FC-GMN15" style="stroke:#37474F;stroke-width:1;stroke-dasharray:7,7;"/></g><!--link CLI to UTILS--><g class="link" data-entity-1="CLI" data-entity-2="UTILS" data-source-line="71" data-uid="lnk50" id="link_CLI_UTILS"><path d="M560.61,137.8573 C564.26,148.1173 571.98,165.0873 585,173.2373 C603.36,184.7273 951.47,209.7073 973,212.1373 C1138.57,230.7773 1326.7513,255.0843 1428.5513,268.4843" fill="none" id="CLI-to-UTILS" style="stroke:#37474F;stroke-width:1;"/><polygon fill="#37474F" points="1434.5,269.2673,1426.099,264.127,1429.5428,268.6148,1425.055,272.0586,1434.5,269.2673" style="stroke:#37474F;stroke-width:1;"/><text fill="#000000" font-family="Verdana" font-size="13" lengthAdjust="spacing" textLength="29.5166" x="874.51" y="201.2071">uses</text></g><!--link WEBUI to UTILS--><g class="link" data-entity-1="WEBUI" data-entity-2="UTILS" data-source-line="72" data-uid="lnk51" id="link_WEBUI_UTILS"><path d="M704.37,137.9273 C707.74,148.2673 715.01,165.3173 728,173.2373 C750.15,186.7273 935.23,184.2073 961,187.1373 C1132.05,206.5673 1325.2042,242.6621 1428.6042,263.1321" fill="none" id="WEBUI-to-UTILS" style="stroke:#37474F;stroke-width:1;"/><polygon fill="#37474F" points="1434.49,264.2973,1426.4381,258.6257,1429.5852,263.3263,1424.8845,266.4734,1434.49,264.2973" style="stroke:#37474F;stroke-width:1;"/><text fill="#000000" font-family="Verdana" font-size="13" lengthAdjust="spacing" textLength="29.5166" x="1081.83" y="201.2071">uses</text></g><!--link CLI to FC--><g class="link" data-entity-1="CLI" data-entity-2="FC" data-source-line="73" data-uid="lnk52" id="link_CLI_FC"><path d="M548.52,130.1073 C496.74,134.0173 248.91,155.5173 204,212.1373 C180.24,242.0773 187.17,263.8273 204,298.1473 C221.77,334.3773 255.0624,358.063 284.7024,374.093" fill="none" id="CLI-to-FC" style="stroke:#37474F;stroke-width:1;"/><polygon fill="#37474F" points="289.98,376.9473,283.9664,369.1475,285.582,374.5688,280.1607,376.1843,289.98,376.9473" style="stroke:#37474F;stroke-width:1;"/><text fill="#000000" font-family="Verdana" font-size="13" lengthAdjust="spacing" textLength="28.4883" x="205" y="285.2071">calls</text></g><!--link CLI to BC--><g class="link" data-entity-1="CLI" data-entity-2="BC" data-source-line="74" data-uid="lnk53" id="link_CLI_BC"><path d="M548.62,134.3773 C530.56,143.9873 489.82,166.1073 457,187.1373 C419.51,211.1573 382.6675,238.084 357.3575,257.094" fill="none" id="CLI-to-BC" style="stroke:#37474F;stroke-width:1;"/><polygon fill="#37474F" points="352.56,260.6973,362.1585,258.4906,356.5579,257.6945,357.354,252.094,352.56,260.6973" style="stroke:#37474F;stroke-width:1;"/><text fill="#000000" font-family="Verdana" font-size="13" lengthAdjust="spacing" textLength="28.4883" x="458" y="201.2071">calls</text></g><!--link WEBUI to FC--><g class="link" data-entity-1="WEBUI" data-entity-2="FC" data-source-line="75" data-uid="lnk54" id="link_WEBUI_FC"><path d="M704.39,137.8973 C707.78,148.1973 715.07,165.2173 728,173.2373 C798.85,217.1673 961.94,136.6473 913,204.1373 C851.75,288.5873 548.9861,354.2856 406.7961,381.0956" fill="none" id="WEBUI-to-FC" style="stroke:#37474F;stroke-width:1;"/><polygon fill="#37474F" points="400.9,382.2073,410.4853,384.4705,405.8134,381.2809,409.003,376.609,400.9,382.2073" style="stroke:#37474F;stroke-width:1;"/><text fill="#000000" font-family="Verdana" font-size="13" lengthAdjust="spacing" textLength="28.4883" x="904.61" y="285.2071">calls</text></g><!--link WEBUI to BC--><g class="link" data-entity-1="WEBUI" data-entity-2="BC" data-source-line="76" data-uid="lnk55" id="link_WEBUI_BC"><path d="M699.04,137.8873 C695.12,147.8673 687.22,164.2273 675,173.2373 C655.05,187.9373 644.83,180.3373 621,187.1373 C537.6,210.9173 447.5232,239.7136 389.0732,258.8136" fill="none" id="WEBUI-to-BC" style="stroke:#37474F;stroke-width:1;"/><polygon fill="#37474F" points="383.37,260.6773,393.1673,261.6839,388.1227,259.1242,390.6824,254.0797,383.37,260.6773" style="stroke:#37474F;stroke-width:1;"/><text fill="#000000" font-family="Verdana" font-size="13" lengthAdjust="spacing" textLength="28.4883" x="622" y="201.2071">calls</text></g><!--link FC to RULES--><g class="link" data-entity-1="FC" data-entity-2="RULES" data-source-line="78" data-uid="lnk56" id="link_FC_RULES"><path d="M400.94,411.3573 C444.25,422.5973 498.8,441.5073 540,471.7473 C609.38,522.6673 588.43,584.2473 668,617.0573 C692.91,627.3273 765.25,612.3273 789,625.0573 C813.04,637.9273 827.7828,659.3245 837.9628,678.5545" fill="none" id="FC-to-RULES" style="stroke:#37474F;stroke-width:1;"/><polygon fill="#37474F" points="840.77,683.8573,840.0944,674.0316,838.4307,679.4383,833.024,677.7746,840.77,683.8573" style="stroke:#37474F;stroke-width:1;"/><text fill="#000000" font-family="Verdana" font-size="13" lengthAdjust="spacing" textLength="35.9722" x="611.57" y="554.8271">reads</text></g><!--link FC to LICDB--><g class="link" data-entity-1="FC" data-entity-2="LICDB" data-source-line="79" data-uid="lnk57" id="link_FC_LICDB"><path d="M401.08,405.5473 C468.82,415.4473 571.93,435.2573 655,471.7473 C759.92,517.8373 759.03,581.5973 868,617.0573 C912.62,631.5673 1035.62,607.1673 1079,625.0573 C1108.76,637.3173 1130.9503,659.7756 1146.8203,679.2556" fill="none" id="FC-to-LICDB" style="stroke:#37474F;stroke-width:1;"/><polygon fill="#37474F" points="1150.61,683.9073,1148.0266,674.4033,1147.4519,680.0309,1141.8244,679.4562,1150.61,683.9073" style="stroke:#37474F;stroke-width:1;"/><text fill="#000000" font-family="Verdana" font-size="13" lengthAdjust="spacing" textLength="68.415" x="782.81" y="554.8271">references</text></g><!--link FC to WM--><g class="link" data-entity-1="FC" data-entity-2="WM" data-source-line="80" data-uid="lnk58" id="link_FC_WM"><path d="M375.21,414.8173 C391,422.7073 407.75,433.2973 420,446.7473 C485.56,518.7073 515.4976,629.1181 526.2176,677.7181" fill="none" id="FC-to-WM" style="stroke:#37474F;stroke-width:1;"/><polygon fill="#37474F" points="527.51,683.5773,529.4775,673.927,526.433,678.6947,521.6653,675.6502,527.51,683.5773" style="stroke:#37474F;stroke-width:1;"/><text fill="#000000" font-family="Verdana" font-size="13" lengthAdjust="spacing" textLength="39.3936" x="492.44" y="554.8271">writes</text></g><!--link FC to EE--><g class="link" data-entity-1="FC" data-entity-2="EE" data-source-line="81" data-uid="lnk59" id="link_FC_EE"><path d="M329,414.8973 C329,444.0173 329,495.2173 329,524.3273" fill="none" id="FC-to-EE" style="stroke:#37474F;stroke-width:1;"/><polygon fill="#37474F" points="329,530.3273,333,521.3273,329,525.3273,325,521.3273,329,530.3273" style="stroke:#37474F;stroke-width:1;"/><text fill="#000000" font-family="Verdana" font-size="13" lengthAdjust="spacing" textLength="81.5356" x="330" y="460.8171">passes trace</text></g><!--link EE to FC--><g class="link" data-entity-1="EE" data-entity-2="FC" data-source-line="88" data-uid="lnk64" id="link_EE_FC"><path d="M305.85,530.5673 C277.36,508.5573 232.21,472.7573 228,463.7473 C224.8,456.8973 224.01,453.1573 228,446.7473 C229.88,443.7173 257.0398,430.4994 284.6998,417.4994" fill="none" id="EE-to-FC" style="stroke:#37474F;stroke-width:1;"/><polygon fill="#37474F" points="290.13,414.9473,280.2833,415.1554,285.6049,417.0741,283.6862,422.3956,290.13,414.9473" style="stroke:#37474F;stroke-width:1;"/><text fill="#000000" font-family="Verdana" font-size="13" lengthAdjust="spacing" textLength="91.1523" x="229" y="460.8171">receives trace</text></g><!--link BC to FC--><g class="link" data-entity-1="BC" data-entity-2="FC" data-source-line="83" data-uid="lnk60" id="link_BC_FC"><path d="M329,298.4973 C329,319.9773 329,349.7973 329,371.2073" fill="none" id="BC-to-FC" style="stroke:#37474F;stroke-width:1;"/><polygon fill="#37474F" points="329,377.2073,333,368.2073,329,372.2073,325,368.2073,329,377.2073" style="stroke:#37474F;stroke-width:1;"/><text fill="#000000" font-family="Verdana" font-size="13" lengthAdjust="spacing" textLength="133.4404" x="330" y="342.2171">calls (as subroutine)</text></g><!--link BC to LICDB--><g class="link" data-entity-1="BC" data-entity-2="LICDB" data-source-line="84" data-uid="lnk61" id="link_BC_LICDB"><path d="M406.5,287.6973 C469.61,294.6073 560.59,307.1973 638,328.1473 C870.88,391.1873 1079.6559,607.9489 1143.5559,679.2589" fill="none" id="BC-to-LICDB" style="stroke:#37474F;stroke-width:1;"/><polygon fill="#37474F" points="1147.56,683.7273,1144.5328,674.3552,1144.2232,680.0036,1138.5749,679.694,1147.56,683.7273" style="stroke:#37474F;stroke-width:1;"/><text fill="#000000" font-family="Verdana" font-size="13" lengthAdjust="spacing" textLength="47.7026" x="903.72" y="460.8171">queries</text></g><!--link BC to WM--><g class="link" data-entity-1="BC" data-entity-2="WM" data-source-line="85" data-uid="lnk62" id="link_BC_WM"><path d="M406.51,286.4273 C515.32,299.2473 709.6,340.3173 795,471.7473 C818.81,508.3873 820.88,534.8473 795,570.0573 C746.46,636.0773 689.86,583.8873 619,625.0573 C592.23,640.6073 570.9731,661.2869 554.6431,679.4369" fill="none" id="BC-to-WM" style="stroke:#37474F;stroke-width:1;"/><polygon fill="#37474F" points="550.63,683.8973,559.6232,679.8821,553.9743,680.1803,553.6761,674.5313,550.63,683.8973" style="stroke:#37474F;stroke-width:1;"/><text fill="#000000" font-family="Verdana" font-size="13" lengthAdjust="spacing" textLength="35.9722" x="790.22" y="460.8171">reads</text></g><!--link EE to WM--><g class="link" data-entity-1="EE" data-entity-2="WM" data-source-line="87" data-uid="lnk63" id="link_EE_WM"><path d="M350.97,568.0173 C367.83,581.5773 391.75,600.6673 413,617.0573 C442.83,640.0573 472.5149,662.211 496.6649,680.061" fill="none" id="EE-to-WM" style="stroke:#37474F;stroke-width:1;"/><polygon fill="#37474F" points="501.49,683.6273,496.63,675.0611,497.4691,680.6553,491.8749,681.4945,501.49,683.6273" style="stroke:#37474F;stroke-width:1;"/><text fill="#000000" font-family="Verdana" font-size="13" lengthAdjust="spacing" textLength="35.9722" x="414" y="614.1271">reads</text></g><!--link UTILS to LOADER--><g class="link" data-entity-1="UTILS" data-entity-2="LOADER" data-source-line="90" data-uid="lnk65" id="link_UTILS_LOADER"><path d="M1506.25,298.4973 C1507.75,319.9773 1509.8407,349.812 1511.3407,371.222" fill="none" id="UTILS-to-LOADER" style="stroke:#37474F;stroke-width:1;"/><polygon fill="#37474F" points="1511.76,377.2073,1515.1212,367.9498,1511.4106,372.2195,1507.1408,368.5089,1511.76,377.2073" style="stroke:#37474F;stroke-width:1;"/><text fill="#000000" font-family="Verdana" font-size="13" lengthAdjust="spacing" textLength="29.5166" x="1510.48" y="342.2171">uses</text></g><!--link LOADER to SPDX--><g class="link" data-entity-1="LOADER" data-entity-2="SPDX" data-source-line="91" data-uid="lnk66" id="link_LOADER_SPDX"><path d="M1513,414.8973 C1513,444.0173 1513,495.2173 1513,524.3273" fill="none" id="LOADER-to-SPDX" style="stroke:#37474F;stroke-width:1;"/><polygon fill="#37474F" points="1513,530.3273,1517,521.3273,1513,525.3273,1509,521.3273,1513,530.3273" style="stroke:#37474F;stroke-width:1;"/><text fill="#000000" font-family="Verdana" font-size="13" lengthAdjust="spacing" textLength="34.1377" x="1514" y="460.8171">loads</text></g><!--link LOADER to FAMILIES--><g class="link" data-entity-1="LOADER" data-entity-2="FAMILIES" data-source-line="92" data-uid="lnk67" id="link_LOADER_FAMILIES"><path d="M1529.91,414.7173 C1543.93,429.6473 1564.21,451.6973 1581,471.7473 C1597.37,491.2873 1611.5142,509.7867 1623.2242,525.4967" fill="none" id="LOADER-to-FAMILIES" style="stroke:#37474F;stroke-width:1;"/><polygon fill="#37474F" points="1626.81,530.3073,1624.6384,520.7008,1623.8219,526.2984,1618.2242,525.4819,1626.81,530.3073" style="stroke:#37474F;stroke-width:1;"/><text fill="#000000" font-family="Verdana" font-size="13" lengthAdjust="spacing" textLength="34.1377" x="1574.9" y="460.8171">loads</text></g><!--link LOADER to MERGED--><g class="link" data-entity-1="LOADER" data-entity-2="MERGED" data-source-line="93" data-uid="lnk68" id="link_LOADER_MERGED"><path d="M1575.3,414.5973 C1613.07,427.0373 1661.11,446.0673 1699,471.7473 C1723.01,488.0173 1741.4668,508.6422 1754.9268,525.6522" fill="none" id="LOADER-to-MERGED" style="stroke:#37474F;stroke-width:1;"/><polygon fill="#37474F" points="1758.65,530.3573,1756.202,520.8175,1755.5474,526.4364,1749.9285,525.7817,1758.65,530.3573" style="stroke:#37474F;stroke-width:1;"/><text fill="#000000" font-family="Verdana" font-size="13" lengthAdjust="spacing" textLength="34.1377" x="1686.34" y="460.8171">loads</text></g><!--SRC=[TLRRRkCs47tNLx0kqEu-96qkXZS1Ma0Nqgj6bXUIZMo1004jqOww4gcIL5AZwBztI5risLdxnPevF7DcU4Zv1_t2AeRgaXRSKTyANbD9AvI9gXQSSPtgVScGP9ccV5Uo8yY6PjzsKZGyzqKf9FgHkERx7Wdwrq78EyNZAp8bs6I4p9diehzUpsPU054YkEvZLzFPdUVyTyHTSCtabcRiVMv2o9r_UyfDxjnFrzCHJqurtL3r7HhyYKpntIdDDPu5DzSZ6YxoxocvmLCoFQMOULV47LDGASMRvUWmDxFRsIq1ZACB3PiG5HdZYZqMeFO2fNkbMOLScRqK6hQdaGnzUF3IZuxpC_hDVD0wnGaAunLEYEjZ5Bb_mhDDELRlPAsOHE4moOZkcPnO2OVnJlmeF60cY2e4aJ5aBcbU2FJ8DcWTMiWZzjO6n8K6znIx5ut4jesYUxIp-6TQrvVr_eahux7BJAcp1QRsFShA0d1c47rd_ZB1q1d12OwXCnpFmnYFMWlvbad6GHtckuApjgs38oT4o3SgS-I_WFCBlhEoYJy6cTqyHtadAFmF71zETI7uK0rW6FVzR8JMeZ8D4H_wsRQbdpD3QYVGYqaQs6VyIil6ifslzypwJQVgY60kQ7aHoEALSUHoMkvLeSvNOmohsK7jCxDgBKF2QY4rcZFEP5lyQDuFyV8nmi4S8yzD-q4FHsVomCLRoV8T0_khRjI7h6sgJS1KadM4qr6-ypKAkeY5HQ4VU2FOev1mLdPemIeXzwtB5cUEiVJGfOIYoZRsHOgyoUpc62Nd9hEbOCaVwJ96f0384-yrBPYcHiAvbHUm8jXpMXKP8ZJJiEZWkOIffjJgU8JhLHY5gn34ZKwWBif25qoXdz1dLjPCgZEd-gAgGFm0jQqRkdICwpL7WkRc79ifBjq09xruBMeZtIurnyhojlw31k2Plq9z6DGJDtk1IY22YHztWR_2RHAx4GhSbNlcW-ETHAbePCQwThOmLZH9lmHVxPYjEFCqf0WCieJcVcdFeRk0QLcVjEcoPLQNVod1BMI1apaEJZmEPwlZUQwOt35fkrkOdwfDxIsX6bycSOpzLRYC-xqnryx5nU_3f1gexBINrrcunzgJdT6oF8IyG-YmcBmNF48w032XmSYCvgeFzbQLh7FQaB5-V9FmAXX2zhJNL85Af2LSr8xZ-ISQq0SOfMesyCRIS1Dyx15zeRyR9c6QVTXMQHKvG7yIwYAM7VunCBYDXihjp2orzMG_lkx99AmxxgthHl7U3E_bMXSCcVy1]--></g></svg>